HIERARCHY
ROOT Hips
{
    OFFSET   0.000000   0.000000   0.000000
    CHANNELS 6 Xposition Yposition Zposition Zrotation Xrotation Yrotation
    JOINT Chest
    {
        OFFSET   0.000000   8.007230   0.000000
        CHANNELS 3 Zrotation Xrotation Yrotation
        JOINT Chest2
        {
            OFFSET   0.000000  22.077100   0.000000
            CHANNELS 3 Zrotation Xrotation Yrotation
            JOINT Neck
            {
                OFFSET   0.000000  23.254700   0.000000
                CHANNELS 3 Zrotation Xrotation Yrotation
                JOINT Head
                {
                    OFFSET   0.000010  14.370000   1.956610
                    CHANNELS 3 Zrotation Xrotation Yrotation
                    End Site
                    {
                        OFFSET   0.000000  19.566000   0.000000
                    }
                }
            }
            JOINT LeftCollar
            {
                OFFSET   3.911900  19.017000  -0.467063
                CHANNELS 3 Zrotation Xrotation Yrotation
                JOINT LeftShoulder
                {
                    OFFSET  10.383700   0.000000   0.000000
                    CHANNELS 3 Zrotation Xrotation Yrotation
                    JOINT LeftElbow
                    {
                        OFFSET  26.662100   0.001671   0.000522
                        CHANNELS 3 Zrotation Xrotation Yrotation
                        JOINT LeftWrist
                        {
                            OFFSET  28.869000   0.000037  -0.000114
                            CHANNELS 3 Zrotation Xrotation Yrotation
                            JOINT LeftFinger0
                            {
                                OFFSET   2.044650  -2.323450   3.252850
                                CHANNELS 3 Zrotation Xrotation Yrotation
                                JOINT LeftFinger01
                                {
                                    OFFSET   3.088140   0.000000   0.000000
                                    CHANNELS 3 Zrotation Xrotation Yrotation
                                    JOINT LeftFinger02
                                    {
                                        OFFSET   2.639460   0.000000   0.000000
                                        CHANNELS 3 Zrotation Xrotation Yrotation
                                        End Site
                                        {
                                            OFFSET   2.582190   0.000000   0.000000
                                        }
                                    }
                                }
                            }
                            JOINT LeftFinger1
                            {
                                OFFSET   8.364480   0.000000   3.252850
                                CHANNELS 3 Zrotation Xrotation Yrotation
                                JOINT LeftFinger11
                                {
                                    OFFSET   4.646930   0.000000   0.000000
                                    CHANNELS 3 Zrotation Xrotation Yrotation
                                    JOINT LeftFinger12
                                    {
                                        OFFSET   2.323470   0.000000   0.000000
                                        CHANNELS 3 Zrotation Xrotation Yrotation
                                        End Site
                                        {
                                            OFFSET   2.273050   0.000000   0.000000
                                        }
                                    }
                                }
                            }
                            JOINT LeftFinger2
                            {
                                OFFSET   8.364490   0.000016   1.078090
                                CHANNELS 3 Zrotation Xrotation Yrotation
                                JOINT LeftFinger21
                                {
                                    OFFSET   5.111620   0.000000   0.000000
                                    CHANNELS 3 Zrotation Xrotation Yrotation
                                    JOINT LeftFinger22
                                    {
                                        OFFSET   2.788150   0.000013   0.000000
                                        CHANNELS 3 Zrotation Xrotation Yrotation
                                        End Site
                                        {
                                            OFFSET   2.727660   0.000000   0.000000
                                        }
                                    }
                                }
                            }
                            JOINT LeftFinger3
                            {
                                OFFSET   7.899780   0.000016  -1.078090
                                CHANNELS 3 Zrotation Xrotation Yrotation
                                JOINT LeftFinger31
                                {
                                    OFFSET   4.646930   0.000000   0.000000
                                    CHANNELS 3 Zrotation Xrotation Yrotation
                                    JOINT LeftFinger32
                                    {
                                        OFFSET   2.323470   0.000000   0.000000
                                        CHANNELS 3 Zrotation Xrotation Yrotation
                                        End Site
                                        {
                                            OFFSET   2.273050   0.000000   0.000000
                                        }
                                    }
                                }
                            }
                            JOINT LeftFinger4
                            {
                                OFFSET   7.435080   0.000000  -3.252850
                                CHANNELS 3 Zrotation Xrotation Yrotation
                                JOINT LeftFinger41
                                {
                                    OFFSET   3.717550   0.000000   0.000000
                                    CHANNELS 3 Zrotation Xrotation Yrotation
                                    JOINT LeftFinger42
                                    {
                                        OFFSET   1.858760   0.000000   0.000000
                                        CHANNELS 3 Zrotation Xrotation Yrotation
                                        End Site
                                        {
                                            OFFSET   1.818440   0.000000   0.000000
                                        }
                                    }
                                }
                            }
                        }
                    }
                }
            }
            JOINT RightCollar
            {
                OFFSET  -3.911900  19.017000  -0.467064
                CHANNELS 3 Zrotation Xrotation Yrotation
                JOINT RightShoulder
                {
                    OFFSET -10.383700   0.000000   0.000000
                    CHANNELS 3 Zrotation Xrotation Yrotation
                    JOINT RightElbow
                    {
                        OFFSET -26.662100   0.001633   0.000260
                        CHANNELS 3 Zrotation Xrotation Yrotation
                        JOINT RightWrist
                        {
                            OFFSET -28.869000  -0.000045  -0.000080
                            CHANNELS 3 Zrotation Xrotation Yrotation
                            JOINT RightFinger0
                            {
                                OFFSET  -2.044660  -2.323490   3.252850
                                CHANNELS 3 Zrotation Xrotation Yrotation
                                JOINT RightFinger01
                                {
                                    OFFSET  -3.088140   0.000000   0.000000
                                    CHANNELS 3 Zrotation Xrotation Yrotation
                                    JOINT RightFinger02
                                    {
                                        OFFSET  -2.639450   0.000000   0.000000
                                        CHANNELS 3 Zrotation Xrotation Yrotation
                                        End Site
                                        {
                                            OFFSET  -2.582190   0.000000   0.000000
                                        }
                                    }
                                }
                            }
                            JOINT RightFinger1
                            {
                                OFFSET  -8.364480   0.000000   3.252850
                                CHANNELS 3 Zrotation Xrotation Yrotation
                                JOINT RightFinger11
                                {
                                    OFFSET  -4.646920   0.000000   0.000000
                                    CHANNELS 3 Zrotation Xrotation Yrotation
                                    JOINT RightFinger12
                                    {
                                        OFFSET  -2.323470   0.000000   0.000000
                                        CHANNELS 3 Zrotation Xrotation Yrotation
                                        End Site
                                        {
                                            OFFSET  -2.273050   0.000000   0.000000
                                        }
                                    }
                                }
                            }
                            JOINT RightFinger2
                            {
                                OFFSET  -8.364480   0.000000   1.078090
                                CHANNELS 3 Zrotation Xrotation Yrotation
                                JOINT RightFinger21
                                {
                                    OFFSET  -5.111610   0.000000   0.000000
                                    CHANNELS 3 Zrotation Xrotation Yrotation
                                    JOINT RightFinger22
                                    {
                                        OFFSET  -2.788160   0.000000   0.000000
                                        CHANNELS 3 Zrotation Xrotation Yrotation
                                        End Site
                                        {
                                            OFFSET  -2.727660   0.000000   0.000000
                                        }
                                    }
                                }
                            }
                            JOINT RightFinger3
                            {
                                OFFSET  -7.899780   0.000000  -1.078090
                                CHANNELS 3 Zrotation Xrotation Yrotation
                                JOINT RightFinger31
                                {
                                    OFFSET  -4.646930   0.000000   0.000000
                                    CHANNELS 3 Zrotation Xrotation Yrotation
                                    JOINT RightFinger32
                                    {
                                        OFFSET  -2.323470   0.000000   0.000000
                                        CHANNELS 3 Zrotation Xrotation Yrotation
                                        End Site
                                        {
                                            OFFSET  -2.273050   0.000000   0.000000
                                        }
                                    }
                                }
                            }
                            JOINT RightFinger4
                            {
                                OFFSET  -7.435090   0.000000  -3.252850
                                CHANNELS 3 Zrotation Xrotation Yrotation
                                JOINT RightFinger41
                                {
                                    OFFSET  -3.717550   0.000000   0.000000
                                    CHANNELS 3 Zrotation Xrotation Yrotation
                                    JOINT RightFinger42
                                    {
                                        OFFSET  -1.858760   0.000000   0.000000
                                        CHANNELS 3 Zrotation Xrotation Yrotation
                                        End Site
                                        {
                                            OFFSET  -1.818440   0.000000   0.000000
                                        }
                                    }
                                }
                            }
                        }
                    }
                }
            }
        }
    }
    JOINT LeftHip
    {
        OFFSET   9.782990   0.000000   0.000000
        CHANNELS 3 Zrotation Xrotation Yrotation
        JOINT LeftKnee
        {
            OFFSET  -0.000063 -41.789100   0.001657
            CHANNELS 3 Zrotation Xrotation Yrotation
            JOINT LeftAnkle
            {
                OFFSET   0.000078 -41.133200  -0.000113
                CHANNELS 3 Zrotation Xrotation Yrotation
                JOINT LeftToe
                {
                    OFFSET   0.000000  -6.358970  14.674500
                    CHANNELS 3 Zrotation Xrotation Yrotation
                    End Site
                    {
                        OFFSET   0.000000   0.000000   3.913200
                    }
                }
            }
        }
    }
    JOINT RightHip
    {
        OFFSET  -9.782990   0.000000   0.000000
        CHANNELS 3 Zrotation Xrotation Yrotation
        JOINT RightKnee
        {
            OFFSET   0.000053 -41.789200   0.000277
            CHANNELS 3 Zrotation Xrotation Yrotation
            JOINT RightAnkle
            {
                OFFSET   0.000030 -41.133200  -0.000150
                CHANNELS 3 Zrotation Xrotation Yrotation
                JOINT RightToe
                {
                    OFFSET   0.000000  -6.358960  14.674500
                    CHANNELS 3 Zrotation Xrotation Yrotation
                    End Site
                    {
                        OFFSET   0.000000   0.000000   3.913200
                    }
                }
            }
        }
    }
}
MOTION
Frames: 6
Frame Time:   0.016667
 -5.921930  89.467800  -3.379010  -5.454410 -12.153700 -13.230400   1.597280   8.516900  -0.722872   3.361100  17.009300  -1.717520   5.299090   1.255540  -0.116463   8.728100   2.479380 -17.854800  -3.977310   0.890086   1.552340 -68.021100  21.976800  -7.029610  -3.663800  -6.239820 -17.366400  12.763700  -4.816250   3.459580  43.855700  40.623400 -69.532300 -32.837900  -0.000000   0.000044 -11.418900  -0.004186  -0.000000 -32.989100   6.102530  -9.302440 -27.398200   0.023535   0.001556 -19.178800   0.011861   0.017625 -28.673800  -2.473210   4.511820 -40.895000   0.010668   0.003605 -27.236100  -0.005586   0.001046 -28.704400  -2.475310   4.510670 -42.396300  -0.006096   0.003209 -28.235900  -0.004579   0.001138 -35.900700  -3.021370   4.165120 -54.015600  -0.003613   0.001734 -35.974400  -0.002549  -0.000803   4.545850  -3.967320   5.454080  23.629700 -35.957500  17.052500 -32.862100 -12.114900  18.292600   5.619130 -41.901400  10.093600 -51.622600  27.734800  45.947400   1.142690   0.002005  -0.001192  -4.428660  -0.000782  -0.001530   0.789767   0.013548   1.022230   0.646406   0.000733  -0.000452   0.452473   0.000405   0.000802  -9.090920   0.494645  -3.089510  -0.000000  -0.004268  -0.001949  -0.000000  -0.002340  -0.001527 -19.997600   1.532870  -4.208960  -0.000000  -0.006517  -0.001721  -0.000000  -0.004821  -0.001229  -9.962920   0.913495  -5.188160   0.000000   0.002338  -0.001714   0.000000   0.002062  -0.001130   4.626260  15.499500   7.622740   2.042850   0.875979  10.672800  -3.736110  -2.400730   0.754193   0.000000   0.000000  -0.000000   6.211590  11.726800   3.901870  -1.909880   4.594560  -7.098520   2.401200  -4.008600   7.781610   0.000000   0.000000   0.000000
 -5.964840  89.467700  -3.373690  -5.420520 -12.121500 -13.196100   1.581850   8.503210  -0.711957   3.327640  16.982400  -1.692450   5.275470   1.204570  -0.111196   8.677820   2.378580 -15.992900  -4.011800   0.850182   1.557290 -68.013700  21.933500  -6.987840  -3.650700  -6.205020 -17.439700  12.747300  -4.822190   3.458980  43.973000  40.767600 -69.700600 -32.852100   0.000000   0.000000 -11.426100   0.009718   0.000000 -32.982900   6.089450  -9.283320 -27.390900  -0.000823   0.001558 -19.173600  -0.001247   0.003422 -28.673500  -2.480570   4.525380 -40.860400   0.010657   0.003601 -27.213000  -0.005587   0.001048 -28.704000  -2.482730   4.524190 -42.364800  -0.006087   0.003210 -28.214900  -0.004577   0.001138 -35.880000  -3.029290   4.178490 -53.985700  -0.003608   0.001732 -35.954600  -0.002550  -0.000840   4.559090  -3.926000   5.484140  23.589500 -35.964700  16.972300 -32.975600 -12.185000  18.297300   5.565440 -41.768200  10.080500 -51.609200  27.737300  46.025400   1.137980   0.001891  -0.001273  -4.431020  -0.000614  -0.001321   1.007670   0.020709   1.194380   0.824754   0.000808  -0.000373   0.577318   0.000358   0.001049  -8.830180   0.469639  -3.021110  -0.000000  -0.004477  -0.001816  -0.000000  -0.002438  -0.001408 -20.064200   1.543380  -4.217410  -0.000000  -0.006807  -0.001749  -0.000000  -0.004923  -0.001229  -9.959710   0.927440  -5.267930   0.000000   0.002468  -0.001774   0.000000   0.002176  -0.001173   4.626910  15.419200   7.622050   2.080730   0.963241  10.677800  -3.774480  -2.421650   0.723454   0.000000   0.000000   0.000000   6.194090  11.725100   3.872060  -1.874710   4.547780  -7.091910   2.419980  -4.009570   7.787140   0.000000   0.000000  -0.000000
 -6.004920  89.467700  -3.367730  -5.389920 -12.094100 -13.162700   1.564140   8.491150  -0.699836   3.289440  16.958900  -1.664660   5.230590   1.156290  -0.105851   8.585690   2.283710 -14.233900  -4.016050   0.831968   1.546340 -68.036800  21.893700  -6.964890  -3.644750  -6.184430 -17.490900  12.711200  -4.804750   3.443610  43.888400  40.701800 -69.658600 -32.886500   0.000000   0.000000 -11.443200   0.007702  -0.000000 -33.035800   6.077390  -9.246200 -27.429600  -0.000355   0.001562 -19.200600  -0.001244   0.001623 -28.672100  -2.494310   4.550180 -40.927600   0.010647   0.003598 -27.257700  -0.005588   0.001045 -28.702600  -2.496390   4.549030 -42.438700  -0.006071   0.003206 -28.264200  -0.004579   0.001142 -35.922700  -3.049490   4.198830 -54.052000  -0.003608   0.001734 -35.998800  -0.002550  -0.000880   4.568680  -3.877820   5.517520  23.569700 -35.971000  16.891300 -33.131600 -12.200100  18.334600   5.567820 -41.686100  10.078900 -51.569500  27.691400  46.001300   1.175460   0.001794  -0.001328  -4.412280  -0.000483  -0.001088   1.334910   0.029887   1.301750   1.092560   0.000896  -0.000285   0.764790   0.000254   0.001314  -8.484430   0.444790  -2.981440  -0.000000  -0.004688  -0.001680  -0.000000  -0.002541  -0.001283 -20.062200   1.564500  -4.267440  -0.000000  -0.007069  -0.001770  -0.000000  -0.005012  -0.001228  -9.955730   0.944885  -5.373680   0.000000   0.002576  -0.001827   0.000000   0.002303  -0.001210   4.622160  15.360400   7.618890   2.124120   1.020900  10.688600  -3.810640  -2.432620   0.691488  -0.000000   0.000000  -0.000000   6.188960  11.728300   3.838360  -1.851320   4.500180  -7.061500   2.425620  -4.010340   7.765610  -0.000000   0.000000  -0.000000
 -6.044720  89.467700  -3.361640  -5.361590 -12.071000 -13.124000   1.544120   8.478150  -0.687128   3.246430  16.933600  -1.635300   5.166960   1.110210  -0.100410   8.498290   2.194030 -12.599500  -4.020390   0.819495   1.531480 -68.065700  21.874300  -6.946050  -3.639990  -6.175050 -17.513000  12.669400  -4.774430   3.422900  43.765000  40.603800 -69.583800 -32.921300   0.000000   0.000000 -11.460600   0.004833  -0.000000 -33.099800   6.061700  -9.201720 -27.481200   0.000282   0.001567 -19.236800  -0.001222   0.001032 -28.670300  -2.510610   4.579630 -41.016200   0.010637   0.003596 -27.316800  -0.005589   0.001043 -28.700600  -2.512590   4.578540 -42.539000  -0.006055   0.003203 -28.331000  -0.004581   0.001146 -35.982700  -3.073440   4.222990 -54.144000  -0.003608   0.001737 -36.060000  -0.002550  -0.000919   4.572690  -3.825880   5.554600  23.547700 -35.966700  16.795000 -33.278200 -12.215100  18.371900   5.605530 -41.622200  10.073600 -51.529900  27.645500  45.977200   1.227470   0.001710  -0.001351  -4.386270  -0.000389  -0.000824   1.684910   0.039937   1.375130   1.378980   0.000973  -0.000192   0.965284   0.000119   0.001596  -8.130730   0.421384  -2.950660  -0.000000  -0.004898  -0.001538  -0.000000  -0.002639  -0.001155 -20.059800   1.579260  -4.317190  -0.000000  -0.007313  -0.001787  -0.000000  -0.005090  -0.001226  -9.952060   0.962844  -5.471260   0.000000   0.002682  -0.001871   0.000000   0.002433  -0.001241   4.619880  15.328600   7.610760   2.153770   1.044320  10.702600  -3.846440  -2.435860   0.657506   0.000000   0.000000   0.000000   6.186880  11.734500   3.803360  -1.828630   4.454550  -7.036940   2.426390  -4.012480   7.744100  -0.000000   0.000000   0.000000
 -6.089090  89.467700  -3.355820  -5.338480 -12.053900 -13.080100   1.522220   8.464580  -0.673645   3.199480  16.907300  -1.604010   5.083770   1.064910  -0.094745   8.369530   2.107160 -11.127700  -4.040270   0.799778   1.526740 -68.099900  21.876400  -6.920890  -3.634720  -6.182090 -17.512700  12.629800  -4.749610   3.414490  43.702700  40.541300 -69.493000 -32.937600   0.000000   0.000397 -11.468800   0.003515   0.000000 -33.120700   6.036920  -9.149540 -27.496400   0.000464   0.001572 -19.247500  -0.000951  -0.000146 -28.668100  -2.529470   4.614110 -41.041300   0.010621   0.003603 -27.333500  -0.005587   0.001043 -28.697900  -2.531420   4.613040 -42.570500  -0.006043   0.003205 -28.351900  -0.004578   0.001145 -36.005200  -3.098240   4.253560 -54.180500  -0.003606   0.001740 -36.084200  -0.002548  -0.000959   4.564430  -3.772720   5.603140  23.469600 -35.907700  16.648600 -33.352300 -12.304200  18.364900   5.697800 -41.572100  10.061900 -51.535500  27.668100  46.027100   1.248140   0.001675  -0.001340  -4.375930  -0.000334  -0.000673   1.981350   0.051825   1.431010   1.621480   0.001022  -0.000145   1.135030   0.000046   0.001898  -7.861210   0.403683  -2.919610   0.018885  -0.005103  -0.001391   0.012577  -0.002726  -0.001026 -19.855400   1.562910  -4.321810  -0.000000  -0.007551  -0.001802  -0.000000  -0.005159  -0.001222 -10.025700   0.979147  -5.501490   0.000000   0.002807  -0.001907   0.000000   0.002561  -0.001266   4.636780  15.322600   7.582910   2.159570   1.038090  10.721600  -3.883190  -2.428770   0.627698   0.000000   0.000000   0.000000   6.188660  11.743500   3.767260  -1.801020   4.413840  -7.041320   2.411640  -4.016690   7.745680   0.000000   0.000000  -0.000000
 -6.132700  89.467800  -3.349680  -5.315960 -12.040600 -13.025700   1.497620   8.448680  -0.659706   3.146920  16.876300  -1.571310   4.986880   1.021790  -0.089134   8.199950   2.024760  -9.798790  -4.077220   0.778076   1.525910 -68.132600  21.885100  -6.891490  -3.627610  -6.195620 -17.509300  12.606600  -4.719210   3.411870  43.679400  40.510800 -69.435300 -32.942600   0.000000   0.002799 -11.471300   0.002898   0.000000 -33.129600   6.012400  -9.117890 -27.498600   0.000532   0.001575 -19.249000  -0.000440  -0.001255 -28.667000  -2.540800   4.634890 -41.044900   0.010604   0.003610 -27.335900  -0.005585   0.001044 -28.696400  -2.542760   4.633830 -42.575600  -0.006031   0.003207 -28.355300  -0.004576   0.001143 -36.011300  -3.112610   4.272390 -54.191200  -0.003603   0.001742 -36.091300  -0.002546  -0.000999   4.551300  -3.717740   5.646750  23.388000 -35.821100  16.489100 -33.377900 -12.417400  18.352800   5.794100 -41.546500  10.043200 -51.562800  27.720500  46.144200   1.254270   0.001584  -0.001262  -4.372850  -0.000316  -0.000183   2.247560   0.058934   1.454390   1.839390   0.001042  -0.000000   1.287560  -0.000191   0.002212  -7.587590   0.385253  -2.887670   0.037771  -0.005299  -0.001234   0.025154  -0.002804  -0.000895 -19.494500   1.536280  -4.326400  -0.000000  -0.007770  -0.001812  -0.000000  -0.005215  -0.001219 -10.100100   0.987857  -5.525020   0.000000   0.002931  -0.001934   0.000000   0.002694  -0.001284   4.663750  15.322800   7.548720   2.164490   1.014720  10.733600  -3.921310  -2.407420   0.594058   0.000000   0.000000   0.000000   6.184040  11.752000   3.733240  -1.765050   4.379340  -7.074380   2.398320  -4.026630   7.756560  -0.000000   0.000000   0.000000
